<?xml version="1.0" encoding="UTF-8"?>
<svg width="49px" height="48px" viewBox="0 0 49 48" version="1.1" xmlns="http://www.w3.org/2000/svg" xmlns:xlink="http://www.w3.org/1999/xlink">
    <!-- Generator: Sketch 62 (91390) - https://sketch.com -->
    <title>Logos/Gallery</title>
    <desc>Created with Sketch.</desc>
    <defs>
        <linearGradient x1="110.461572%" y1="110.656698%" x2="18.396614%" y2="9.51049045%" id="linearGradient-1">
            <stop stop-color="#FAC861" offset="0%"></stop>
            <stop stop-color="#F76B1C" offset="100%"></stop>
        </linearGradient>
        <linearGradient x1="-423.061212%" y1="-731.648711%" x2="494.718873%" y2="244.221252%" id="linearGradient-2">
            <stop stop-color="#F57126" offset="0%"></stop>
            <stop stop-color="#FEB800" offset="100%"></stop>
        </linearGradient>
    </defs>
    <g id="Logos/Gallery" stroke="none" stroke-width="1" fill="none" fill-rule="evenodd">
        <g id="Group-2">
            <g id="Group" transform="translate(24.169606, 23.766897) rotate(-14.000000) translate(-24.169606, -23.766897) translate(4.169606, 4.266897)">
                <path d="M16,0 C23.7228082,0 30.1676795,5.47149874 31.6696029,12.7494854 L31.8198802,12.7352922 L31.8198802,12.7352922 L31.99,12.73 C33.475646,12.73 34.68,13.934354 34.68,15.42 C34.68,16.905646 33.475646,18.11 31.99,18.11 C31.8624797,18.11 31.7370319,18.1011268 31.6142403,18.083964 C28.2197899,17.9185671 27.3444851,21.9241728 30.2285438,23.2704536 L30.2109161,23.2612594 C32.0645103,23.7146533 33.44,25.3866953 33.44,27.38 C33.44,29.7216873 31.5416873,31.62 29.2,31.62 C27.4884239,31.62 26.0137154,30.6058497 25.3440025,29.1456772 C25.1121533,28.7021279 25.080745,28.6897825 24.7107866,28.3080279 C24.0410364,27.6968409 23.227822,27.5494436 22.2251242,27.6968409 C20.6113044,27.9340736 19.3068382,29.4323429 19.8066497,31.5196157 C19.8228683,31.617792 19.8375943,31.8065549 19.8375943,31.9039179 L19.836,31.881 L19.84,31.99 C19.84,33.4185057 18.726507,34.5869413 17.3201198,34.6747078 L17.15,34.68 C15.9907629,34.68 15.0027918,33.946723 14.6246192,32.9187016 C14.5321437,32.6842164 14.4970634,32.4940655 14.4828468,32.3447483 C14.46793,32.2292518 14.46,32.1105519 14.46,31.99 C14.46,31.9886634 14.460001,31.987327 14.4600029,31.9859908 C14.4498122,31.940361 14.4252609,31.9179564 14.369642,31.9179564 C6.2988827,31.1011579 0,24.2861704 0,16 C0,7.163444 7.163444,0 16,0 Z M17.6690788,17.2300201 C17.1546345,17.1017547 16.6336153,17.4148146 16.5053499,17.929259 L16.5053499,17.929259 L15.4602473,22.1209365 C15.3319819,22.6353808 15.6450419,23.1564 16.1594862,23.2846654 L16.1594862,23.2846654 L20.3511637,24.329768 C20.8656081,24.4580334 21.3866273,24.1449735 21.5148927,23.6305291 L21.5148927,23.6305291 L22.5599953,19.4388516 C22.6882606,18.9244072 22.3752007,18.403388 21.8607564,18.2751227 L21.8607564,18.2751227 Z M9.17536615,15.1437539 C8.6609218,15.0154885 8.13990262,15.3285484 8.01163724,15.8429927 L8.01163724,15.8429927 L6.96653465,20.0346703 C6.83826927,20.5491146 7.15132917,21.0701338 7.66577353,21.1983992 L7.66577353,21.1983992 L11.8574511,22.2435018 C12.3718954,22.3717672 12.8929146,22.0587073 13.02118,21.5442629 L13.02118,21.5442629 L14.0662826,17.3525854 C14.194548,16.838141 13.881488,16.3171218 13.3670437,16.1888564 L13.3670437,16.1888564 Z M19.7553451,8.73630739 C19.2409007,8.60804201 18.7198815,8.92110192 18.5916161,9.43554627 L18.5916161,9.43554627 L17.5465136,13.6272238 C17.4182482,14.1416682 17.7313081,14.6626873 18.2457524,14.7909527 L18.2457524,14.7909527 L22.43743,15.8360553 C22.9518743,15.9643207 23.4728935,15.6512608 23.6011589,15.1368164 L23.6011589,15.1368164 L24.6462615,10.9451389 C24.7745269,10.4306945 24.4614669,9.90967536 23.9470226,9.78140998 L23.9470226,9.78140998 Z M11.3828541,6.57720379 C10.8684098,6.44893841 10.3473906,6.76199832 10.2191252,7.27644267 L10.2191252,7.27644267 L9.17402263,11.4681202 C9.04575725,11.9825646 9.35881716,12.5035837 9.87326151,12.6318491 L9.87326151,12.6318491 L14.064939,13.6769517 C14.5793834,13.8052171 15.1004026,13.4921572 15.228668,12.9777128 L15.228668,12.9777128 L16.2737705,8.7860353 C16.4020359,8.27159095 16.088976,7.75057176 15.5745317,7.62230638 L15.5745317,7.62230638 Z" id="Combined-Shape" fill="url(#linearGradient-1)"></path>
                <circle id="Oval" fill="url(#linearGradient-2)" cx="22.68" cy="30.84" r="1.76"></circle>
                <circle id="Oval-Copy-3" fill="url(#linearGradient-2)" cx="31.3" cy="20.8" r="1.6"></circle>
                <circle id="Oval-Copy-4" fill="url(#linearGradient-2)" cx="34.75" cy="34.35" r="1.47"></circle>
                <circle id="Oval-Copy-11" fill="url(#linearGradient-2)" cx="37.68" cy="37.5" r="1"></circle>
                <circle id="Oval-Copy-12" fill="url(#linearGradient-2)" cx="27.74" cy="36.62" r="1"></circle>
                <circle id="Oval-Copy-13" fill="url(#linearGradient-2)" cx="38.92" cy="28.2" r="1"></circle>
                <circle id="Oval-Copy-7" fill="url(#linearGradient-2)" cx="20.39" cy="36.09" r="1.41"></circle>
                <circle id="Oval-Copy-6" fill="url(#linearGradient-2)" cx="37.69" cy="17.05" r="1.41"></circle>
            </g>
        </g>
    </g>
</svg>